<svg width="36" height="36" viewBox="0 0 36 36" fill="#D9D9D9" xmlns="http://www.w3.org/2000/svg">
<path fill-rule="evenodd" clip-rule="evenodd" d="M32.1561 6.75H3.84834C3.33217 6.88966 2.8854 7.2143 2.59312 7.66208L2.56213 7.713C2.21678 8.28416 2.2367 8.38378 2.78351 8.74462C7.77191 12.021 12.7551 15.3041 17.7332 18.5938C17.8082 18.6578 17.9036 18.6931 18.0022 18.6931C18.1008 18.6931 18.1962 18.6578 18.2712 18.5938C23.326 15.2554 28.3875 11.9244 33.4556 8.60073C33.501 8.58097 33.5418 8.55197 33.5754 8.51556C33.609 8.47915 33.6346 8.43614 33.6507 8.38927C33.6667 8.34241 33.6728 8.29271 33.6685 8.24335C33.6643 8.194 33.6498 8.14607 33.626 8.10262C33.5326 7.81463 33.3739 7.5521 33.1623 7.33553C32.9507 7.11895 32.692 6.95417 32.4062 6.85405C32.3469 6.83218 32.2886 6.80701 32.2299 6.78164L32.2299 6.78164L32.2299 6.78163C32.2054 6.77105 32.1808 6.76043 32.1561 6.75ZM7.43248 14.144L2.25 10.7458V24.4581C2.31641 24.4116 2.38504 24.3673 2.45367 24.323L12.5596 17.923C12.6209 17.885 12.6802 17.8452 12.7471 17.8003L12.7471 17.8002L12.7472 17.8002C12.7818 17.777 12.8185 17.7523 12.8585 17.7259C12.7857 17.6786 12.723 17.6367 12.6643 17.5975L12.664 17.5973L12.664 17.5972C12.6157 17.5649 12.5702 17.5345 12.5242 17.5045C10.8329 16.3829 9.13562 15.2627 7.43248 14.144ZM17.99 28.3831H4.26455C3.83537 28.39 3.41616 28.2536 3.0733 27.9953C2.73045 27.7371 2.48357 27.3718 2.37176 26.9574C2.35648 26.9273 2.34728 26.8945 2.34468 26.8609C2.34209 26.8272 2.34615 26.7934 2.35664 26.7613C2.36712 26.7293 2.38383 26.6996 2.40579 26.674C2.42776 26.6483 2.45456 26.6273 2.48466 26.6121C6.49457 24.0824 10.5008 21.5491 14.5033 19.0121C14.6627 18.9103 14.7579 18.9634 14.8819 19.0453C15.11 19.1966 15.3389 19.3465 15.5678 19.4965C16.1363 19.8691 16.7052 20.2418 17.2639 20.6348C17.4718 20.8034 17.7313 20.8954 17.9989 20.8954C18.2665 20.8954 18.526 20.8034 18.7339 20.6348C19.1736 20.3326 19.619 20.0407 20.0644 19.7488L20.0645 19.7487C20.415 19.5189 20.7657 19.2891 21.1137 19.0542C21.1752 19.0011 21.2538 18.9718 21.3351 18.9718C21.4164 18.9718 21.4949 19.0011 21.5565 19.0542C25.5324 21.5764 29.5121 24.092 33.4954 26.601C33.532 26.6156 33.5653 26.6376 33.593 26.6656C33.6208 26.6936 33.6425 26.727 33.6569 26.7637C33.6712 26.8005 33.6778 26.8398 33.6763 26.8792C33.6748 26.9186 33.6652 26.9573 33.6482 26.9928C33.532 27.405 33.2822 27.767 32.938 28.0218C32.5938 28.2767 32.1747 28.41 31.7465 28.4008L17.99 28.3831ZM23.1238 17.7326L33.7389 24.4382L33.75 10.7437L23.1238 17.7326Z"/>
</svg>
