<svg width="32" height="32" viewBox="0 0 32 32" fill="#D9D9D9" xmlns="http://www.w3.org/2000/svg">
<path fill-rule="evenodd" clip-rule="evenodd" d="M6 2C3.79086 2 2 3.79086 2 6V26C2 28.2091 3.79086 30 6 30H26C28.2091 30 30 28.2091 30 26V6C30 3.79086 28.2091 2 26 2H6ZM6.612 13.43C6.204 14.198 6 15.092 6 16.112C6 17.132 6.204 18.032 6.612 18.812C7.032 19.58 7.608 20.18 8.34 20.612C9.072 21.032 9.912 21.242 10.86 21.242C12.036 21.242 13.02 20.948 13.812 20.36C14.604 19.76 15.144 18.956 15.432 17.948H13.218C12.834 18.992 12.048 19.514 10.86 19.514C10.02 19.514 9.348 19.214 8.844 18.614C8.352 18.014 8.106 17.18 8.106 16.112C8.106 15.044 8.352 14.216 8.844 13.628C9.348 13.028 10.02 12.728 10.86 12.728C11.46 12.728 11.958 12.866 12.354 13.142C12.75 13.418 13.038 13.802 13.218 14.294H15.432C15.156 13.238 14.622 12.428 13.83 11.864C13.05 11.288 12.06 11 10.86 11C9.912 11 9.072 11.21 8.34 11.63C7.608 12.05 7.032 12.65 6.612 13.43ZM24.119 11.162L21.311 19.244L18.503 11.162H16.307L20.069 21.08H22.517L26.297 11.162H24.119Z"/>
</svg>
