<svg width="36" height="36" viewBox="0 0 36 36" fill="#D9D9D9" xmlns="http://www.w3.org/2000/svg">
<path d="M33.4153 15.7829C32.604 11.8475 30.2588 8.38052 26.8813 6.12352C25.0988 4.89842 23.0688 4.0652 20.9295 3.68051H20.8754C20.2684 3.5527 19.6529 3.46802 19.0335 3.42714L18.9222 3.39898H18.6741C17.8053 3.3526 16.9342 3.37352 16.0687 3.46154H15.9892C14.1215 3.68719 12.312 4.24919 10.6513 5.11941C8.47558 6.24558 6.59583 7.85362 5.16045 9.81661C3.72507 11.7796 2.77336 14.0438 2.38043 16.4304C2.38043 16.4304 2.38043 16.4461 2.38043 16.4742C2.36452 16.5806 2.34543 16.6901 2.32953 16.787C2.28817 17.0999 2.31362 17.4127 2.25 17.7255V17.9695C2.25808 17.9764 2.26458 17.9849 2.26909 17.9945C2.26909 18.1603 2.25318 18.3323 2.25 18.5137C2.25 18.9517 2.25 19.4209 2.25 19.8807V19.8995V20.2592C2.26724 20.2839 2.28215 20.31 2.29454 20.3374C2.32157 20.6983 2.37472 21.0568 2.45359 21.4103C3.10256 25.3952 5.30194 28.9757 8.58677 31.3951C9.90655 32.3669 11.3727 33.13 12.9322 33.6566C13.5461 33.8662 14.0519 33.5816 14.0774 32.9716C14.1155 32.0895 14.0774 31.2011 14.0774 30.294C13.4344 30.4403 12.7737 30.4971 12.1146 30.4629C10.5559 30.3378 9.36933 29.6684 8.75219 28.1888C8.41415 27.2408 7.77369 26.4256 6.92623 25.8647C6.78919 25.7776 6.66502 25.6723 6.55722 25.5519C6.32818 25.2954 6.38862 25.1139 6.72582 25.042C7.0688 24.9751 7.42404 25.0055 7.75014 25.1296C8.52573 25.4124 9.17321 25.9581 9.5761 26.6686C9.80888 27.0616 10.1142 27.4085 10.4764 27.6914C11.5961 28.5141 12.7858 28.4015 14.001 27.9386C14.0444 27.9232 14.0819 27.8953 14.1087 27.8584C14.1354 27.8215 14.15 27.7774 14.1505 27.7321C14.2521 27.0109 14.5867 26.3409 15.1049 25.8209C14.9617 25.7958 14.8504 25.7708 14.7422 25.7583C13.8067 25.6508 12.8886 25.428 12.0096 25.0952C10.5539 24.5595 9.37112 23.4819 8.7172 22.0954C8.31982 21.2107 8.07781 20.2662 8.00145 19.302C7.80422 17.3876 8.10642 15.6078 9.44249 14.1063C9.48473 14.0671 9.51399 14.0163 9.52647 13.9605C9.53895 13.9047 9.53407 13.8465 9.51248 13.7935C9.19888 12.8398 9.1658 11.8183 9.41704 10.8469C9.66517 9.75831 9.83695 9.65196 10.9408 9.946C11.9625 10.2443 12.9291 10.7016 13.8038 11.3004C13.8758 11.3531 13.9592 11.3887 14.0475 11.4044C14.1358 11.4202 14.2266 11.4156 14.3128 11.3912C16.7346 10.7796 19.2743 10.7796 21.6961 11.3912C21.7726 11.4145 21.8537 11.4199 21.9327 11.4068C22.0117 11.3938 22.0865 11.3627 22.151 11.3161C22.8722 10.8336 23.647 10.4338 24.4605 10.1243C24.9349 9.92999 25.4419 9.82393 25.9556 9.81149C26.0797 9.81149 26.2419 9.76457 26.3119 9.95851C26.7993 11.1439 26.8676 12.4559 26.506 13.684C26.4652 13.7678 26.4528 13.8621 26.4706 13.9533C26.4883 14.0445 26.5353 14.1277 26.6046 14.1908C27.0679 14.7159 27.4272 15.3217 27.6639 15.9769C28.2047 17.4627 28.0997 18.9704 27.807 20.4781C27.6011 21.7079 27.0159 22.8457 26.1306 23.7376C24.9981 24.8605 23.5348 25.3704 21.9761 25.6426C21.623 25.7051 21.2667 25.752 20.8659 25.8146C21.131 26.0696 21.3457 26.3708 21.4989 26.703C21.8022 27.3767 21.9458 28.1094 21.9188 28.8457C21.9188 30.1782 21.8997 31.5077 21.9029 32.8371C21.9029 33.569 22.3864 33.9131 23.0799 33.6754C25.3757 32.9083 27.4567 31.6227 29.1558 29.9217C31.5758 27.5394 33.1328 24.4412 33.5871 21.1038C33.8517 19.3342 33.7936 17.5324 33.4153 15.7829Z"/>
</svg>
