<svg width="91" height="88" viewBox="0 0 91 88" fill="none" xmlns="http://www.w3.org/2000/svg">
<path fill-rule="evenodd" clip-rule="evenodd" d="M45 0H40.0575V2H33V3.52H27.092V7.54286H22.7701V11.0629H14.6667V15.0857H10.8851V22.6286H6.56322V30.1714H2.24138V37.2114H0V53.3029H2.24138V60.8457H6.56322V68.8914H10.8851V76.4343H14.6667V79.9543H22.7701V83.9771H31.4138V88H45H46H59.5862V83.9771H68.2299V79.9543H76.3333V76.4343H80.1149V68.8914H84.4368V60.8457H88.7586V53.3029H91V37.2114H88.7586V30.1714H84.4368V22.6286H80.1149V15.0857H76.3333V11.0629H68.2299V7.54286H63.908V3.52H59V2H50.9425V0H46H45Z" fill="#1A8F51"/>
<path d="M23.47 57H16V64.1657H19.5451V67.9371H23.47V71.7086H27.015V75.2286H38.03V79H52.8433V75.2286H63.8584V71.7086H67.53V67.9371H71.3283V60.6457H75V57H67.53V60.6457H63.8584V64.1657H60.4399V67.9371H56.6416V71.7086H34.485V67.9371H27.015V64.1657H23.47V57Z" fill="black"/>
<path fill-rule="evenodd" clip-rule="evenodd" d="M57.6697 26H51.2823V26H48.0885V41.0293H51.2823V51.362H57.6697V26Z" fill="black"/>
<path fill-rule="evenodd" clip-rule="evenodd" d="M39.6345 26H33.2471V51.362H39.6345V51.3619H42.8282V36.3326H39.6345V26Z" fill="black"/>
</svg>
