<svg width="566" height="136" viewBox="0 0 566 136" fill="none" xmlns="http://www.w3.org/2000/svg">
  <rect width="455.738" height="12.6947" transform="matrix(-1 0 0 1 528.097 0)" fill="#EBEBEB"/>
  <rect width="515.403" height="12.6947" transform="matrix(-1 0 0 1 528.097 123.138)" fill="#EBEBEB"/>
  <rect width="61.5691" height="12.6946" transform="matrix(4.37114e-08 1 1 -4.37114e-08 552.852 36.8145)" fill="#EBEBEB"/>
  <rect x="37.4492" y="36.8145" width="61.5691" height="12.0599" transform="rotate(90 37.4492 36.8145)" fill="#EBEBEB"/>
  <rect width="12.6947" height="12.6947" transform="matrix(4.37114e-08 1 1 -4.37114e-08 540.157 24.1199)" fill="#EBEBEB"/>
  <rect x="50.7786" y="24.1199" width="12.6947" height="13.3294" transform="rotate(90 50.7786 24.1199)" fill="#EBEBEB"/>
  <rect x="12.6946" y="110.443" width="12.6947" height="12.6947" transform="rotate(90 12.6946 110.443)" fill="#EBEBEB"/>
  <rect width="12.6947" height="12.6947" transform="matrix(4.37114e-08 1 1 -4.37114e-08 540.157 98.3835)" fill="#EBEBEB"/>
  <rect width="12.0599" height="12.0599" transform="matrix(4.37114e-08 1 1 -4.37114e-08 528.097 111.078)" fill="#EBEBEB"/>
  <rect width="12.0599" height="12.6947" transform="matrix(4.37114e-08 1 1 -4.37114e-08 528.097 12.0601)" fill="#EBEBEB"/>
  <rect x="62.2038" y="12.0601" width="12.0599" height="12.0599" transform="rotate(90 62.2038 12.0601)" fill="#EBEBEB"/>
  <rect x="25.3893" y="98.3835" width="12.0599" height="12.6947" transform="rotate(90 25.3893 98.3835)" fill="#EBEBEB"/>
</svg>