<svg width="72" height="87" viewBox="0 0 72 87" fill="none" xmlns="http://www.w3.org/2000/svg">
<rect width="14.4" height="14.4" transform="matrix(-1 0 0 1 43.2 0.599976)" fill="#1A8F51"/>
<rect width="14.4" height="14.4" transform="matrix(-1 0 0 1 43.2 15)" fill="#1A8F51"/>
<rect width="14.4" height="14.4" transform="matrix(-1 0 0 1 43.2 29.4)" fill="#1A8F51"/>
<rect width="14.4" height="14.4" transform="matrix(-1 0 0 1 43.2 43.8)" fill="#1A8F51"/>
<rect width="14.4" height="14.4" transform="matrix(-1 0 0 1 43.2 58.2)" fill="#1A8F51"/>
<rect width="14.4" height="14.4" transform="matrix(-1 0 0 1 57.6 58.2)" fill="#1A8F51"/>
<rect width="14.4" height="14.4" transform="matrix(-1 0 0 1 72.0001 44.088)" fill="#1A8F51"/>
<rect width="14.4" height="14.4" transform="matrix(-1 0 0 1 28.8 58.2)" fill="#1A8F51"/>
<rect width="14.4" height="14.4" transform="matrix(-1 0 0 1 43.2 72.6001)" fill="#1A8F51"/>
<rect width="14.4" height="14.4" transform="matrix(-1 0 0 1 14.4 43.8)" fill="#1A8F51"/>
</svg>
